# xmcd
#
# Track frame offsets:
#	150
#	20484
#	39149
#	57991
#	76326
#	93061
#	112030
#	132364
#	151029
#	169871
#	188206
#	204941
#
# Disc length: 2985 seconds
#
# Revision: 1
# Processed by: cddbd v1.5.2PL0 Copyright (c) Steve Scherf et al.
# Submitted via: audiograbber 1.83.01
#
DISCID=8c0ba70c
DTITLE=Karaoke Party - Men of R&B
DYEAR=1998
DGENRE=
TTITLE0=Usher - U Got It Bad
TTITLE1=Craig David - Fill Me In
TTITLE2=Jagged Edge w/ Nelly - Where The Party At
TTITLE3=Shaggy feat. Rayvon - Angel
TTITLE4=Dante Thomas feat. Pras - Miss California
TTITLE5=Sisqo - Dance For Me
TTITLE6=Usher - U Got It Bad (vocal)
TTITLE7=Craig David - Fill Me In (vocal)
TTITLE8=Jagged Edge w/ Nelly - Where The Party At (vocal)
TTITLE9=Shaggy feat. Rayvon - Angel (vocal)
TTITLE10=Dante Thomas feat. Pras - Miss California (vocal)
TTITLE11=Sisqo - Dance For Me (vocal)
EXTD=
EXTT0=
EXTT1=
EXTT2=
EXTT3=
EXTT4=
EXTT5=
EXTT6=
EXTT7=
EXTT8=
EXTT9=
EXTT10=
EXTT11=
PLAYORDER=
